# xmcd CD database file
#
# Track frame offsets:
#	187
#	14210
#	29937
#	47682
#	68555
#	85092
#	107065
#	121440
#	137155
#	152327
#	181085
#	203252
#	223862
#
# Disc length: 3199 seconds
#
# Revision: 0
# Processed by: cddbd v1.5PL3 Copyright (c) Steve Scherf et al.
# Submitted via: CDex 1.50
#
DISCID=b20c7d0d
DTITLE=THUNDERHEAD - Crime Pays
DYEAR=1991
DGENRE=Hard Rock
TTITLE0=City Cornered Man
TTITLE1=Make It Hard
TTITLE2=N.Y. You Let Me Down
TTITLE3=Crime Pays
TTITLE4=Let The Dogs Loose
TTITLE5=Forgive And Forget You
TTITLE6=Torture Ride
TTITLE7=Live With It
TTITLE8=What Mama Don't Know
TTITLE9=Life Is Only A Goodbye
TTITLE10=Ain't No Trust
TTITLE11=Space Station #5
TTITLE12=If You Want Me To Love You
EXTD=YEAR: 1991
EXTT0=
EXTT1=
EXTT2=
EXTT3=
EXTT4=
EXTT5=
EXTT6=
EXTT7=
EXTT8=
EXTT9=
EXTT10=
EXTT11=
EXTT12=
PLAYORDER=
